<?xml version="1.0" encoding="utf-8"?>
<!-- Generator: Adobe Illustrator 18.1.0, SVG Export Plug-In . SVG Version: 6.00 Build 0)  -->
<svg version="1.1" id="Слой_1" xmlns="http://www.w3.org/2000/svg" xmlns:xlink="http://www.w3.org/1999/xlink" x="0px" y="0px"
	 viewBox="0 0 45 14" enable-background="new 0 0 45 14" xml:space="preserve">
<g>
	<linearGradient id="SVGID_1_" gradientUnits="userSpaceOnUse" x1="26.7143" y1="-1.459923e-006" x2="26.7143" y2="14.0874">
		<stop  offset="0" style="stop-color:#FFFFFF"/>
		<stop  offset="0.3128" style="stop-color:#FCFCFC"/>
		<stop  offset="0.5146" style="stop-color:#F4F4F4"/>
		<stop  offset="0.685" style="stop-color:#E5E5E5"/>
		<stop  offset="0.8379" style="stop-color:#D0D0D0"/>
		<stop  offset="0.9779" style="stop-color:#B5B5B6"/>
		<stop  offset="1" style="stop-color:#B0B0B1"/>
	</linearGradient>
	<path fill-rule="evenodd" clip-rule="evenodd" fill="url(#SVGID_1_)" d="M30.6,0c0.1,0,0.1,0,0.2,0c0.7,0.1,1.1,0.5,1.5,1.1
		c0.1,0.2,0.2,0.3,0.2,0.5c1.3,2.8,2.6,5.5,3.9,8.3c0.6,1.3,1.2,2.6,1.8,3.9c0,0,0,0.1,0.1,0.1C38.1,14,38,14,37.9,14
		c-0.3,0-0.6,0.1-0.9,0c-0.8-0.1-1.5-0.4-2-0.9c-0.1-0.1-0.2-0.2-0.2-0.3c-1.4-3.1-2.9-6.1-4.3-9.2c0,0,0-0.1-0.1-0.1
		c0,0,0,0.1-0.1,0.1c-1.2,2.6-2.4,5.1-3.6,7.7c-0.2,0.5-0.5,1-0.7,1.5c-0.1,0.2-0.2,0.4-0.4,0.5c-0.4,0.4-0.8,0.6-1.3,0.7
		c-0.6,0.1-1.2,0.1-1.8,0c-0.6-0.2-1-0.5-1.4-0.9C21.1,13,21,12.9,21,12.8c-1.2-2.6-2.5-5.3-3.7-7.9c-0.7-1.5-1.4-3-2.1-4.5
		c0,0,0-0.1-0.1-0.1c0.1-0.1,0.3-0.1,0.5-0.2c0.6-0.1,1.1-0.1,1.7,0.1c0.3,0.1,0.7,0.3,0.9,0.5c0.2,0.2,0.3,0.3,0.4,0.6
		c1.6,3.4,3.1,6.7,4.7,10.1c0,0.1,0.1,0.2,0.1,0.3c0,0,0-0.1,0.1-0.1c0.5-1.1,1-2.2,1.5-3.3c1.1-2.4,2.2-4.7,3.3-7.1
		c0.1-0.2,0.2-0.3,0.3-0.4c0.3-0.3,0.7-0.6,1.1-0.7C29.9,0,30,0,30.1,0C30.3,0,30.4,0,30.6,0z"/>
	<linearGradient id="SVGID_2_" gradientUnits="userSpaceOnUse" x1="5.3523" y1="1.923505e-002" x2="5.3523" y2="14.1698">
		<stop  offset="0" style="stop-color:#FFFFFF"/>
		<stop  offset="0.3128" style="stop-color:#FCFCFC"/>
		<stop  offset="0.5146" style="stop-color:#F4F4F4"/>
		<stop  offset="0.685" style="stop-color:#E5E5E5"/>
		<stop  offset="0.8379" style="stop-color:#D0D0D0"/>
		<stop  offset="0.9779" style="stop-color:#B5B5B6"/>
		<stop  offset="1" style="stop-color:#B0B0B1"/>
	</linearGradient>
	<path fill-rule="evenodd" clip-rule="evenodd" fill="url(#SVGID_2_)" d="M0,5c0-0.1,0-0.1,0-0.2c0.1-1.3,0.6-2.4,1.5-3.3
		c0.8-0.8,1.7-1.3,2.9-1.5C6.2-0.2,7.7,0.3,9,1.4c0.9,0.8,1.5,1.8,1.6,3c0.3,1.7-0.2,3.2-1.3,4.5c-0.8,0.9-1.8,1.4-3,1.6
		c-0.3,0.1-0.6,0.1-0.9,0.1c-0.5,0-1.1,0-1.6,0c0,0-0.1,0-0.1,0c0-0.1,0-0.1,0-0.1c0.1-0.5,0.2-1,0.4-1.5c0.2-0.4,0.5-0.8,0.9-1
		c0.2-0.1,0.5-0.2,0.8-0.3c1-0.2,1.8-0.9,2.1-1.9c0.2-0.8,0-1.6-0.6-2.2C6.7,3.1,6,2.8,5.2,2.9c-1.1,0.1-2,0.8-2.3,1.8
		C2.8,4.9,2.7,5.1,2.7,5.4c0,2.9,0,5.8,0,8.7c0,0,0,0.1,0,0.1c-0.1,0-0.1,0-0.2,0c0,0,0,0-0.1,0c-0.2,0-0.4-0.1-0.5-0.1
		c-0.6-0.2-1-0.6-1.4-1c-0.2-0.3-0.4-0.6-0.5-0.9c0,0,0-0.1,0-0.1C0,9.7,0,7.3,0,5z"/>
	<linearGradient id="SVGID_3_" gradientUnits="userSpaceOnUse" x1="41.357" y1="1.593717e-002" x2="41.357" y2="12.361">
		<stop  offset="0" style="stop-color:#FFFFFF"/>
		<stop  offset="0.3128" style="stop-color:#FCFCFC"/>
		<stop  offset="0.5146" style="stop-color:#F4F4F4"/>
		<stop  offset="0.685" style="stop-color:#E5E5E5"/>
		<stop  offset="0.8379" style="stop-color:#D0D0D0"/>
		<stop  offset="0.9779" style="stop-color:#B5B5B6"/>
		<stop  offset="1" style="stop-color:#B0B0B1"/>
	</linearGradient>
	<path fill-rule="evenodd" clip-rule="evenodd" fill="url(#SVGID_3_)" d="M45,0.3c-0.8,1.8-1.7,3.6-2.5,5.3c-1,2.2-2.1,4.4-3.1,6.6
		c0,0,0,0.1,0,0.1c0,0-0.1,0-0.1,0c-0.4-0.2-0.8-0.5-1-0.9C38,11,37.8,10.5,37.7,10c0-0.3,0-0.7,0.1-1c0.3-0.6,0.6-1.2,0.9-1.9
		c0.9-2,1.9-4,2.8-6c0.1-0.2,0.2-0.4,0.4-0.5c0.3-0.3,0.7-0.4,1.1-0.5c0.5-0.1,1.1-0.2,1.6,0C44.7,0.1,44.9,0.2,45,0.3
		C45,0.3,45,0.3,45,0.3z"/>
	<linearGradient id="SVGID_4_" gradientUnits="userSpaceOnUse" x1="12.1499" y1="1.6931" x2="12.1499" y2="14.0424">
		<stop  offset="0" style="stop-color:#FFFFFF"/>
		<stop  offset="0.3128" style="stop-color:#FCFCFC"/>
		<stop  offset="0.5146" style="stop-color:#F4F4F4"/>
		<stop  offset="0.685" style="stop-color:#E5E5E5"/>
		<stop  offset="0.8379" style="stop-color:#D0D0D0"/>
		<stop  offset="0.9779" style="stop-color:#B5B5B6"/>
		<stop  offset="1" style="stop-color:#B0B0B1"/>
	</linearGradient>
	<path fill-rule="evenodd" clip-rule="evenodd" fill="url(#SVGID_4_)" d="M8.5,13.8c1.9-4.1,3.8-8.1,5.6-12.1c0.1,0,0.1,0,0.2,0.1
		C14.7,2,15,2.3,15.3,2.7c0.3,0.4,0.4,0.9,0.5,1.4c0,0.3,0,0.7-0.1,1c-0.9,1.9-1.8,3.8-2.6,5.7c-0.3,0.7-0.7,1.4-1,2.1
		c-0.1,0.2-0.2,0.4-0.4,0.5c-0.4,0.3-0.8,0.5-1.3,0.6c-0.5,0.1-0.9,0.1-1.4,0C8.8,13.9,8.6,13.9,8.5,13.8z"/>
</g>
</svg>
