<?xml version="1.0" encoding="utf-8"?>
<!-- Generator: Adobe Illustrator 18.1.0, SVG Export Plug-In . SVG Version: 6.00 Build 0)  -->
<svg version="1.1" id="Слой_1" xmlns="http://www.w3.org/2000/svg" xmlns:xlink="http://www.w3.org/1999/xlink" x="0px" y="0px"
	 viewBox="0 0 50 14.8" enable-background="new 0 0 50 14.8" xml:space="preserve">
<g id="XMLID_967_">
	
		<linearGradient id="XMLID_2_" gradientUnits="userSpaceOnUse" x1="23.4406" y1="17.2815" x2="23.4406" y2="2.5685" gradientTransform="matrix(1 0 0 -1 0 17.3207)">
		<stop  offset="0.4286" style="stop-color:#FFFFFF"/>
		<stop  offset="0.7276" style="stop-color:#FDFDFD"/>
		<stop  offset="0.8354" style="stop-color:#F6F7F7"/>
		<stop  offset="0.9121" style="stop-color:#EBEBEC"/>
		<stop  offset="0.9738" style="stop-color:#DADBDC"/>
		<stop  offset="1" style="stop-color:#D0D2D3"/>
	</linearGradient>
	<path id="XMLID_976_" fill="url(#XMLID_2_)" d="M29.3,13.2c-0.9,1.4-2.7,1.9-4.2,1.2l0,0c-0.7-0.3-1.3-0.9-1.6-1.6l-2.5-5.3l0,0
		l-3.3-7.1C19.3-0.4,21.3,0.3,22,2l1.9,4l2.5,5.3l0,0C27,12.4,28,13.1,29.3,13.2z"/>
	
		<linearGradient id="XMLID_3_" gradientUnits="userSpaceOnUse" x1="27.5472" y1="4.6252" x2="34.8189" y2="17.2203" gradientTransform="matrix(1 0 0 -1 0 17.3207)">
		<stop  offset="0" style="stop-color:#BBBDBF"/>
		<stop  offset="7.520723e-002" style="stop-color:#CCCECF"/>
		<stop  offset="0.1742" style="stop-color:#DBDCDD"/>
		<stop  offset="0.2924" style="stop-color:#E3E4E5"/>
		<stop  offset="0.4778" style="stop-color:#E6E7E8"/>
		<stop  offset="1" style="stop-color:#FFFFFF"/>
	</linearGradient>
	<path id="XMLID_975_" fill="url(#XMLID_3_)" d="M36.7,1.7c-1.2,0-2.3,0.7-2.8,1.8l0,0l0,0v0.1L31.8,8l-0.4,0.8l0,0l-1.9,4
		c-0.1,0.1-0.1,0.3-0.2,0.4c-1.2,0-2.3-0.7-2.8-1.8l0,0l1.9-4l0,0L28.6,7l2.3-4.9c0.3-0.7,0.9-1.3,1.6-1.6c0.1,0,0.2-0.1,0.3-0.1
		h0.1c0.1,0,0.2,0,0.2-0.1h0.1h0.1h0.1c0.1,0,0.1,0,0.2,0c0,0,0,0,0.1,0h0.1h0.1l0,0H34h0.1c0,0,0,0,0.1,0s0.1,0,0.2,0h0.1h0.1h0.1
		c0.1,0,0.2,0,0.2,0.1H35c0.1,0,0.2,0.1,0.3,0.1C35.8,0.7,36.3,1.1,36.7,1.7z"/>
	
		<linearGradient id="XMLID_4_" gradientUnits="userSpaceOnUse" x1="38.2294" y1="15.6885" x2="38.2294" y2="2.5624" gradientTransform="matrix(1 0 0 -1 0 17.3207)">
		<stop  offset="0" style="stop-color:#BBBDBF"/>
		<stop  offset="0.1063" style="stop-color:#C7C9CB"/>
		<stop  offset="0.2993" style="stop-color:#E8E8E9"/>
		<stop  offset="0.4187" style="stop-color:#FFFFFF"/>
		<stop  offset="0.8818" style="stop-color:#FFFFFF"/>
		<stop  offset="1" style="stop-color:#D0D2D3"/>
	</linearGradient>
	<path id="XMLID_974_" fill="url(#XMLID_4_)" d="M42.7,14.5c-1.7,0.8-3.7,0.1-4.4-1.6l-2.3-4.9l-0.2-0.4l0,0l-1.9-4l0,0l0,0
		c0.5-1,1.6-1.8,2.8-1.8c0.1,0.1,0.1,0.2,0.2,0.4l1.9,4l0,0l0.4,0.8L42.7,14.5z"/>
	
		<linearGradient id="XMLID_5_" gradientUnits="userSpaceOnUse" x1="14.15" y1="15.86" x2="14.15" y2="2.5648" gradientTransform="matrix(1 0 0 -1 0 17.3207)">
		<stop  offset="0.5961" style="stop-color:#FFFFFF"/>
		<stop  offset="0.8075" style="stop-color:#FDFDFD"/>
		<stop  offset="0.8836" style="stop-color:#F6F7F7"/>
		<stop  offset="0.9379" style="stop-color:#EBEBEC"/>
		<stop  offset="0.9815" style="stop-color:#DADBDC"/>
		<stop  offset="1" style="stop-color:#D0D2D3"/>
	</linearGradient>
	<path id="XMLID_973_" fill="url(#XMLID_5_)" d="M17.8,5.9l-3.2,6.8c-0.8,1.7-2.8,2.4-4.4,1.6l6-13C17.9,2.3,18.6,4.2,17.8,5.9z"/>
	
		<linearGradient id="XMLID_6_" gradientUnits="userSpaceOnUse" x1="41.045" y1="7.9118" x2="51.7313" y2="14.0816" gradientTransform="matrix(1 0 0 -1 0 17.3207)">
		<stop  offset="0" style="stop-color:#D0D2D3"/>
		<stop  offset="2.070489e-002" style="stop-color:#D8DADB"/>
		<stop  offset="7.757426e-002" style="stop-color:#EAEBEB"/>
		<stop  offset="0.1472" style="stop-color:#F6F6F7"/>
		<stop  offset="0.2421" style="stop-color:#FDFDFD"/>
		<stop  offset="0.4778" style="stop-color:#FFFFFF"/>
	</linearGradient>
	<path id="XMLID_972_" fill="url(#XMLID_6_)" d="M45.6,2l-3.2,6.8c-0.8,1.7-0.1,3.7,1.6,4.4l6-13C48.4-0.4,46.4,0.3,45.6,2z"/>
	
		<radialGradient id="XMLID_7_" cx="4.7149" cy="8.2245" r="4.9137" gradientTransform="matrix(1 0 0 -1 0 17.3207)" gradientUnits="userSpaceOnUse">
		<stop  offset="0" style="stop-color:#D0D2D3"/>
		<stop  offset="0.3056" style="stop-color:#DADBDC"/>
		<stop  offset="0.8206" style="stop-color:#F4F5F5"/>
		<stop  offset="1" style="stop-color:#FFFFFF"/>
	</radialGradient>
	<path id="XMLID_970_" fill="url(#XMLID_7_)" d="M5.9,0.1C5,0.1,4.1,0.3,3.4,0.7C2.6,1.1,2,1.6,1.4,2.2C0.6,3.2,0.1,4.4,0,5.7v0.4
		v5.2v0.1c0.1,1.8,1.5,3.2,3.3,3.2v-3.2v-0.2l0,0V5.9c0-1.4,1.1-2.5,2.5-2.5s2.5,1.1,2.5,2.5C8.4,7,7.5,8,6.5,8.3H6.4l0,0H6.3l0,0
		c-1.2,0.4-2.1,1.6-2.1,3c0,0,0,0,0,0.1v0.1c0.5,0.1,1,0.2,1.6,0.2c1.7,0,3.2-0.7,4.3-1.9c1-1,1.6-2.4,1.6-4
		C11.9,2.7,9.3,0.1,5.9,0.1z"/>
	
		<linearGradient id="XMLID_8_" gradientUnits="userSpaceOnUse" x1="5.9859" y1="2.563" x2="5.9859" y2="17.2384" gradientTransform="matrix(1 0 0 -1 0 17.3207)">
		<stop  offset="0" style="stop-color:#D0D2D3"/>
		<stop  offset="1.906643e-002" style="stop-color:#D5D7D8"/>
		<stop  offset="0.1039" style="stop-color:#E8E9E9"/>
		<stop  offset="0.2041" style="stop-color:#F5F6F6"/>
		<stop  offset="0.3328" style="stop-color:#FDFDFD"/>
		<stop  offset="0.5911" style="stop-color:#FFFFFF"/>
	</linearGradient>
	<path id="XMLID_968_" fill="url(#XMLID_8_)" d="M11.9,5.6c0-0.5-0.1-0.9-0.2-1.3C11,1.9,8.7,0.2,6,0.2c-0.9,0-1.8,0.2-2.5,0.6
		c-0.8,0.4-1.4,0.9-2,1.5c-0.8,1-1.3,2.2-1.4,3.5v0.4v5.2v0.1c0.1,1.8,1.5,3.2,3.3,3.2v-3.2v-0.2l0,0V6c0-1.4,1.1-2.5,2.5-2.5
		c1,0,1.8,0.5,2.2,1.3c0,0.1,0.1,0.1,0.1,0.2l3.6,1C11.9,5.8,11.9,5.7,11.9,5.6z"/>
</g>
</svg>
