<?xml version="1.0" encoding="utf-8"?>
<!-- Generator: Adobe Illustrator 18.1.0, SVG Export Plug-In . SVG Version: 6.00 Build 0)  -->
<svg version="1.1" id="Слой_1" xmlns="http://www.w3.org/2000/svg" xmlns:xlink="http://www.w3.org/1999/xlink" x="0px" y="0px"
	 viewBox="0 0 50 50" enable-background="new 0 0 50 50" xml:space="preserve">
<g>
	<circle fill="#19233F" cx="25" cy="25" r="25"/>
	<g>
		<g>
			<path fill="#FFFFFF" d="M14.8,21.5c-2.5,0-4.5-2-4.5-4.5s2-4.5,4.5-4.5c2.5,0,4.5,2,4.5,4.5S17.3,21.5,14.8,21.5z M14.8,13.6
				c-1.9,0-3.4,1.5-3.4,3.4s1.5,3.4,3.4,3.4s3.4-1.5,3.4-3.4S16.7,13.6,14.8,13.6z"/>
		</g>
		<g>
			<path fill="#FFFFFF" d="M40,21.6H14.9c-2.5,0-4.6-2.1-4.6-4.6s2.1-4.6,4.6-4.6H40c2.5,0,4.6,2.1,4.6,4.6S42.5,21.6,40,21.6z
				 M14.9,13.5c-1.9,0-3.5,1.6-3.5,3.5s1.6,3.5,3.5,3.5H40c1.9,0,3.5-1.6,3.5-3.5s-1.6-3.5-3.5-3.5H14.9z"/>
		</g>
		<g>
			<path fill="#FFFFFF" d="M14.8,31.5c-2.5,0-4.5-2.1-4.5-4.6c0-2.5,2-4.5,4.5-4.5c1.2,0,2.4,0.5,3.2,1.3c0.9,0.9,1.4,2,1.4,3.2
				c0,1.2-0.5,2.4-1.4,3.2C17.2,31.1,16,31.5,14.8,31.5z M14.8,23.5c-1.9,0-3.4,1.5-3.4,3.4c0,1.9,1.5,3.5,3.4,3.5
				c1.9,0,3.5-1.6,3.5-3.5S16.7,23.5,14.8,23.5z"/>
		</g>
		<g>
			<path fill="#FFFFFF" d="M6.8,25.9c-2.2,0-4-1.8-4-4s1.8-4,4-4s4,1.8,4,4S9,25.9,6.8,25.9z M6.8,19.1C5.3,19.1,4,20.4,4,22
				c0,1.6,1.3,2.8,2.8,2.8s2.8-1.3,2.8-2.8C9.7,20.4,8.4,19.1,6.8,19.1z"/>
		</g>
		<g>
			<circle fill="#FFFFFF" cx="14.7" cy="26.8" r="1"/>
		</g>
		<g>
			<circle fill="#FFFFFF" cx="14.7" cy="17" r="1"/>
		</g>
		<g>
			<circle fill="#FFFFFF" cx="6.8" cy="22" r="0.8"/>
		</g>
		<g>
			<path fill="#FFFFFF" d="M36.4,22.4C36.4,22.4,36.4,22.4,36.4,22.4c2.3,0.2,2.3,2.8,2.3,2.8s0.1,7.1,0,8.1c-0.1,1-1.2,1.5-1.9,1.6
				c-0.8,0.1-3.1-0.2-3.1-0.2s0.2,1.1,0,2.7c-0.2,1.6-1.9,1.9-1.9,1.9H21.1V25.2c0-1.5-1.2-2.7-1.7-2.8l0.4,18.3h11.8
				c4.6,0,8.3-3.7,8.3-8.3v-10H36.4z"/>
		</g>
		<g>
			<g>
				<path fill="#FFFFFF" d="M15,31.5h4.7l0.5-7.9l-0.9-1.2H15c2.1,0.5,3.7,2.3,3.7,4.6C18.7,29.2,17.1,31.1,15,31.5z"/>
			</g>
			<g>
				<path fill="#FFFFFF" d="M39.7,22.4l0.1,9.1c2.4-0.2,4.3-2.1,4.3-4.5v0C44.1,24.6,42.1,22.6,39.7,22.4z"/>
			</g>
		</g>
	</g>
</g>
</svg>
