<?xml version="1.0" encoding="utf-8"?>
<!-- Generator: Adobe Illustrator 18.1.0, SVG Export Plug-In . SVG Version: 6.00 Build 0)  -->
<svg version="1.1" id="Слой_1" xmlns="http://www.w3.org/2000/svg" xmlns:xlink="http://www.w3.org/1999/xlink" x="0px" y="0px"
	 viewBox="0 0 50 50" enable-background="new 0 0 50 50" xml:space="preserve">
<g>
	<circle fill="#19233F" cx="25" cy="25" r="25"/>
	<g>
		<path fill="#FFFFFF" d="M14.5,19.2v15.5c0,1.3,1,2.3,2.3,2.3h22.5c1.3,0,2.3-1,2.3-2.3V19.2c0-1.3-1-2.3-2.3-2.3H16.7
			C15.5,16.9,14.5,17.9,14.5,19.2z M40.9,27c0,0.6-0.5,1.1-1.1,1.1c-0.6,0-1.1-0.5-1.1-1.1c0-0.6,0.5-1.1,1.1-1.1
			C40.4,25.9,40.9,26.4,40.9,27z M38,19v15.8H16.5V19H38z"/>
		<g>
			<path fill="#FFFFFF" d="M23.8,16.5c-0.6,1.2-1.9,3.2-4.2,4.4c-2.4,1-4.8,0.7-6.1,0.4s-1.5-1.1-1.7-1.6s-0.4-2.4-0.4-2.4
				s3.9-0.5,4.8-0.6s1.2-0.2,1.2-0.2s0.2-0.1,1-0.8c0.7-0.7,3.6-3.3,3.6-3.3s1.3,1.3,1.6,1.8C23.9,14.7,24.4,15.3,23.8,16.5z"/>
			<path fill="#FFFFFF" d="M8,27.5c0,0,2-4.1,0.9-7.4s1.1-0.5,1.1-0.5s2.9,4.8,2.1,6.6C11.2,28,9.8,28.4,8,27.5z"/>
			<circle fill="#FFFFFF" cx="9.1" cy="19" r="1.1"/>
			<path fill="#FFFFFF" d="M8.9,15.7c0,0-0.6,1.1-0.4,2.5c0.2,1.4,1.1-0.1,1.1-0.1s-0.2-1.3,0.5-2.4C10.9,14.6,8.9,15.7,8.9,15.7z"
				/>
			<path fill="#FFFFFF" d="M26.1,6.4c-0.1-0.1-0.2-0.1-0.3-0.1L13.9,8c-0.2,0-0.5,0.1-0.6,0.3l-8.9,8.1c-0.1,0.1-0.1,0.2-0.1,0.3
				c0,0.1,0,0.2,0.2,0.3C4.4,17,4.5,17,4.6,17l5.1-0.7c0.3-0.6,1.3-2.5,5.1-5.2c0,0,0.1,0,0.1,0c0.1-0.1,0.6-0.2,0.8,0.2
				c0,0,0,0,0,0c0.2,0.3,0.1,0.6-0.2,0.8c-0.7,0.5-3.5,2.4-4.2,3.9c0,0,0,0,0,0.1l5.2-0.7c0.3,0,0.5-0.1,0.7-0.3L26,7
				c0.1-0.1,0.1-0.2,0.1-0.2C26.2,6.6,26.1,6.5,26.1,6.4z"/>
		</g>
	</g>
</g>
</svg>
