<?xml version="1.0" encoding="utf-8"?>
<!-- Generator: Adobe Illustrator 18.1.0, SVG Export Plug-In . SVG Version: 6.00 Build 0)  -->
<svg version="1.1" id="Слой_1" xmlns="http://www.w3.org/2000/svg" xmlns:xlink="http://www.w3.org/1999/xlink" x="0px" y="0px"
	 viewBox="0 0 50 50" enable-background="new 0 0 50 50" xml:space="preserve">
<g>
	<circle fill="#19233F" cx="25" cy="25" r="25"/>
	<g>
		<g>
			<path fill="#FFFFFF" d="M38.5,36.6H12.6l0,0c-1.4-0.1-3.4-1.2-3.4-3.8V16h4.6v-4.3h27.6l0,21.1C41.4,34.6,40.5,36.6,38.5,36.6z
				 M15.5,34.6h23c0.7,0,0.9-1.7,0.9-1.8v-19H15.9l0,19.1C15.9,33.3,15.8,34,15.5,34.6z M11.2,18v14.7c0,1.5,1,1.7,1.4,1.8
				c1.1,0,1.2-1.6,1.2-1.7V18H11.2z"/>
		</g>
		<g>
			<g>
				<rect x="19.4" y="17" fill="#FFFFFF" width="16.6" height="2.1"/>
				<path fill="#FFFFFF" d="M36,19.2H19.3V17H36V19.2z M19.5,19h16.4v-1.9H19.5V19z"/>
			</g>
			<g>
				<rect x="27" y="21" fill="#FFFFFF" width="9" height="8.6"/>
				<path fill="#FFFFFF" d="M36,29.7h-9.1V21H36V29.7z M27,29.5h8.9v-8.4H27V29.5z"/>
			</g>
			<g>
				<rect x="19.4" y="21.3" fill="#FFFFFF" width="5.4" height="0.6"/>
				<path fill="#FFFFFF" d="M24.9,22h-5.5v-0.7h5.5V22z M19.5,21.8h5.3v-0.5h-5.3V21.8z"/>
			</g>
			<g>
				<rect x="19.4" y="23.8" fill="#FFFFFF" width="5.4" height="0.6"/>
				<path fill="#FFFFFF" d="M24.9,24.4h-5.5v-0.7h5.5V24.4z M19.5,24.3h5.3v-0.5h-5.3V24.3z"/>
			</g>
			<g>
				<rect x="19.4" y="26" fill="#FFFFFF" width="5.4" height="0.6"/>
				<path fill="#FFFFFF" d="M24.9,26.7h-5.5v-0.7h5.5V26.7z M19.5,26.5h5.3V26h-5.3V26.5z"/>
			</g>
			<g>
				<rect x="19.4" y="28.5" fill="#FFFFFF" width="5.4" height="0.6"/>
				<path fill="#FFFFFF" d="M24.9,29.1h-5.5v-0.7h5.5V29.1z M19.5,29h5.3v-0.5h-5.3V29z"/>
			</g>
			<g>
				<rect x="19.4" y="30.7" fill="#FFFFFF" width="5.4" height="0.6"/>
				<path fill="#FFFFFF" d="M24.9,31.3h-5.5v-0.7h5.5V31.3z M19.5,31.2h5.3v-0.5h-5.3V31.2z"/>
			</g>
		</g>
	</g>
</g>
</svg>
