<?xml version="1.0" encoding="utf-8"?>
<!-- Generator: Adobe Illustrator 18.1.0, SVG Export Plug-In . SVG Version: 6.00 Build 0)  -->
<svg version="1.1" id="Слой_1" xmlns="http://www.w3.org/2000/svg" xmlns:xlink="http://www.w3.org/1999/xlink" x="0px" y="0px"
	 viewBox="0 0 50 50" enable-background="new 0 0 50 50" xml:space="preserve">
<g>
	<circle fill="#19233F" cx="25" cy="25" r="25"/>
	<g>
		<path fill="#FFFFFF" d="M32.4,10.2H11.4c-2,0-3.7,1.6-3.7,3.7v12c0,2,1.6,3.7,3.7,3.7h20.9c2,0,3.7-1.6,3.7-3.7v-12
			C36,11.9,34.4,10.2,32.4,10.2z M32.4,12c0.5,0,0.8,0.4,0.8,0.8c0,0.5-0.4,0.8-0.8,0.8c-0.5,0-0.8-0.4-0.8-0.8
			C31.6,12.4,31.9,12,32.4,12z M29.8,12c0.5,0,0.8,0.4,0.8,0.8c0,0.5-0.4,0.8-0.8,0.8s-0.8-0.4-0.8-0.8C28.9,12.4,29.3,12,29.8,12z
			 M34,26.9h-24V15.1h24V26.9z"/>
		<path fill="#FFFFFF" d="M21.6,22.7H16c-1.4,0-2.5,1.1-2.5,2.5v13c0,1.4,1.1,2.5,2.5,2.5h5.6c1.4,0,2.5-1.1,2.5-2.5v-13
			C24.1,23.8,22.9,22.7,21.6,22.7z M21.5,24.2c0.3,0,0.6,0.3,0.6,0.6c0,0.3-0.3,0.6-0.6,0.6c-0.3,0-0.6-0.3-0.6-0.6
			C20.9,24.5,21.1,24.2,21.5,24.2z M19.5,24.2c0.3,0,0.6,0.3,0.6,0.6c0,0.3-0.3,0.6-0.6,0.6c-0.3,0-0.6-0.3-0.6-0.6
			C18.9,24.5,19.2,24.2,19.5,24.2z M22.5,39h-6.9V27h6.9V39z"/>
		<path fill="#FFFFFF" d="M42,21.8H30.3c-1.5,0-2.7,1.2-2.7,2.7V32c0,1.5,1.2,2.7,2.7,2.7H42c1.5,0,2.7-1.2,2.7-2.7v-7.4
			C44.8,23.1,43.5,21.8,42,21.8z M42.1,22.7c0.3,0,0.6,0.3,0.6,0.6c0,0.3-0.3,0.6-0.6,0.6c-0.3,0-0.6-0.3-0.6-0.6
			C41.5,23,41.8,22.7,42.1,22.7z M40.2,22.7c0.3,0,0.6,0.3,0.6,0.6c0,0.3-0.3,0.6-0.6,0.6s-0.6-0.3-0.6-0.6
			C39.6,23,39.8,22.7,40.2,22.7z M42.9,32.7H29.6v-8.2h13.2V32.7z"/>
	</g>
</g>
</svg>
