<?xml version="1.0" encoding="utf-8"?>
<!-- Generator: Adobe Illustrator 18.1.0, SVG Export Plug-In . SVG Version: 6.00 Build 0)  -->
<svg version="1.1" id="Слой_1" xmlns="http://www.w3.org/2000/svg" xmlns:xlink="http://www.w3.org/1999/xlink" x="0px" y="0px"
	 viewBox="0 0 50 50" enable-background="new 0 0 50 50" xml:space="preserve">
<g>
	<circle fill="#19233F" cx="25" cy="25" r="25"/>
	<g>
		<g>
			<path fill="#FFFFFF" d="M35.7,40.3h-6.1c-0.4,0-0.6-0.3-0.6-0.6v-1.5c0,0,0,0,0,0c-0.8-0.9-3-3.4-3.7-3.9c-0.6-0.5-1.1-1.3-1-2.1
				c0-0.5,0.2-0.8,0.5-1.1l0.1,0c0.3-0.2,0.9-0.7,1.7-0.7c0.5,0,1.1,0.2,1.6,0.6v-6.6c0-0.1,0-0.1,0-0.2c0.2-0.5,0.7-1.4,1.6-1.4
				c1.1,0,1.6,1.3,1.7,1.5c0,0.1,0,0.1,0,0.2v2.5c0.2-0.1,0.5-0.2,0.8-0.2c1.3,0,1.8,0.8,1.8,0.9c0,0,0,0,0,0c0.2-0.1,0.5-0.1,0.8,0
				c0.7,0.2,1.2,0.6,1.5,1.1c0.1,0.1,0.1,0.3,0.1,0.4c0.4,0,0.8,0.2,1,0.6l0.1,0.1c0.5,0.8,0.7,1.2,0.3,2.6
				c-0.3,1.2-1.4,4.1-1.6,4.7l0,2.5C36.4,40.1,36.1,40.3,35.7,40.3z M30.3,39.1h4.8l0-2c0-0.1,0-0.1,0-0.2c0,0,1.3-3.5,1.6-4.7
				c0.2-1,0.2-1-0.2-1.6l-0.1-0.1c-0.1,0-0.2,0.1-0.2,0.2c-0.2,0.2-0.6,0.2-0.8,0.1c-0.3-0.2-0.3-0.5-0.2-0.8c0.1-0.1,0.1-0.4,0-0.6
				c-0.1-0.2-0.3-0.4-0.7-0.5c0,0,0,0-0.1,0c-0.1,0-0.3,0.5-0.4,1c0,0.3-0.3,0.6-0.7,0.6c-0.3,0-0.6-0.3-0.6-0.6v-1.5
				c-0.1-0.1-0.3-0.2-0.6-0.2c-0.4,0-0.6,0.2-0.7,0.3c0,0.6,0,1.5,0,1.7c-0.1,0.6-0.6,0.7-0.7,0.7c-0.3,0-0.5-0.1-0.6-0.4
				c-0.1-0.1-0.1-0.2-0.1-0.3v-5.5c-0.1-0.3-0.3-0.5-0.4-0.5c-0.1,0-0.3,0.3-0.4,0.5v7.3c0,1-0.4,1.3-0.8,1.3
				c-0.3,0-0.5-0.2-0.5-0.2c0,0,0,0-0.1-0.1c-0.4-0.5-0.9-1.1-1.5-1.1c-0.4,0-0.7,0.2-0.9,0.4l0,0c-0.1,0.2,0.1,0.8,0.6,1.2
				c0.8,0.6,3.3,3.4,3.8,4l0.1,0.1c0.2,0.1,0.3,0.3,0.3,0.5V39.1z"/>
		</g>
		<g>
			<g>
				<g>
					<g>
						<path fill="#FFFFFF" d="M13.7,17.6H9.4v-4.1h4.3V17.6z M10.3,16.7h2.4v-2.2h-2.4V16.7z"/>
					</g>
				</g>
				<g>
					<g>
						<path fill="#FFFFFF" d="M32.5,17.6h-4.3v-4.1h4.3V17.6z M29.2,16.7h2.4v-2.2h-2.4V16.7z"/>
					</g>
				</g>
				<g>
					<g>
						<path fill="#FFFFFF" d="M13.7,33.4H9.4v-4.1h4.3V33.4z M10.3,32.4h2.4v-2.2h-2.4V32.4z"/>
					</g>
				</g>
			</g>
			<g>
				<g>
					<path fill="#FFFFFF" d="M29.9,17.6v3.6c0.1,0,0.2,0,0.2,0c0.3,0,0.5,0.1,0.7,0.2v-4.7h-1.7v-1.6H12.7v1.6h-1.7v13.5h1.7v1.4
						h10.6c0,0,0,0,0,0c0.1-0.3,0.3-0.6,0.5-0.9H13.7v-1.4H12V17.6h1.7V16h14.5v1.6H29.9z"/>
				</g>
			</g>
			<g>
				<g>
					<path fill="#FFFFFF" d="M13.5,15.1L13,14.2l7.7-4.5c0.1,0,0.2-0.1,0.2-0.1h16.8c0.2,0,0.4,0.1,0.5,0.3c0.1,0.2,0,0.4-0.2,0.5
						l-5.9,4.1l-0.5-0.8l4.6-3.2H21.1L13.5,15.1z"/>
				</g>
			</g>
			<g>
				<g>
					<path fill="#FFFFFF" d="M37.2,10.1v16l-1.5,1c0.4,0.1,0.7,0.2,1,0.5l1.2-0.9c0.1-0.1,0.2-0.2,0.2-0.4V10.1H37.2z"/>
				</g>
			</g>
		</g>
	</g>
	<polygon opacity="0.6" fill="#FFFFFF" points="13.5,15.1 21.1,10.6 37.2,10.1 32.1,14.6 31.5,14.4 29.2,14.4 28.6,15.1 	"/>
	<path fill="#FFFFFF" d="M38,10.5l0.2,15.8l-1.9,0.4l-0.5,0.4c0,0-0.9-0.3-1.3-0.2c0,0-0.4-1.2-2.3-1v-2.6c0,0-0.3-1.9-1.3-2
		c-1,0-0.3-4.1-0.3-4.1l1.2-0.1l0.4-2.6L38,10.5z"/>
</g>
</svg>
