<?xml version="1.0" encoding="utf-8"?>
<!-- Generator: Adobe Illustrator 18.1.0, SVG Export Plug-In . SVG Version: 6.00 Build 0)  -->
<svg version="1.1" id="Слой_1" xmlns="http://www.w3.org/2000/svg" xmlns:xlink="http://www.w3.org/1999/xlink" x="0px" y="0px"
	 viewBox="0 0 50 50" enable-background="new 0 0 50 50" xml:space="preserve">
<g>
	<circle fill="#19233F" cx="25" cy="25" r="25"/>
	<g>
		<g>
			<path fill="#FFFFFF" d="M18.2,14.5L18.2,14.5c-0.6,0-1-0.4-1-0.9v-2.8c0-0.5,0.4-0.9,0.9-0.9h0.1c0.5,0,0.9,0.4,0.9,0.9v2.8
				C19.1,14.1,18.7,14.5,18.2,14.5z"/>
			<path fill="#FFFFFF" d="M22.8,14.5L22.8,14.5c-0.6,0-1-0.4-1-0.9v-2.8c0-0.5,0.4-0.9,0.9-0.9h0.1c0.5,0,0.9,0.4,0.9,0.9v2.8
				C23.7,14.1,23.3,14.5,22.8,14.5z"/>
			<path fill="#FFFFFF" d="M27.4,14.5L27.4,14.5c-0.6,0-1-0.4-1-0.9v-2.8c0-0.5,0.4-0.9,0.9-0.9h0.1c0.5,0,0.9,0.4,0.9,0.9v2.8
				C28.3,14.1,27.9,14.5,27.4,14.5z"/>
			<path fill="#FFFFFF" d="M32,14.5L32,14.5c-0.6,0-1-0.4-1-0.9v-2.8c0-0.5,0.4-0.9,0.9-0.9H32c0.5,0,0.9,0.4,0.9,0.9v2.8
				C32.9,14.1,32.5,14.5,32,14.5z"/>
			<path fill="#FFFFFF" d="M18.2,40.1L18.2,40.1c-0.6,0-1-0.4-1-0.9v-2.8c0-0.5,0.4-0.9,0.9-0.9h0.1c0.5,0,0.9,0.4,0.9,0.9v2.8
				C19.1,39.7,18.7,40.1,18.2,40.1z"/>
			<path fill="#FFFFFF" d="M22.8,40.1L22.8,40.1c-0.6,0-1-0.4-1-0.9v-2.8c0-0.5,0.4-0.9,0.9-0.9h0.1c0.5,0,0.9,0.4,0.9,0.9v2.8
				C23.7,39.7,23.3,40.1,22.8,40.1z"/>
			<path fill="#FFFFFF" d="M27.4,40.1L27.4,40.1c-0.6,0-1-0.4-1-0.9v-2.8c0-0.5,0.4-0.9,0.9-0.9h0.1c0.5,0,0.9,0.4,0.9,0.9v2.8
				C28.3,39.7,27.9,40.1,27.4,40.1z"/>
			<path fill="#FFFFFF" d="M32,40.1L32,40.1c-0.6,0-1-0.4-1-0.9v-2.8c0-0.5,0.4-0.9,0.9-0.9H32c0.5,0,0.9,0.4,0.9,0.9v2.8
				C32.9,39.7,32.5,40.1,32,40.1z"/>
			<path fill="#FFFFFF" d="M14.5,31.9L14.5,31.9c0,0.6-0.4,1-0.9,1h-2.8c-0.5,0-0.9-0.4-0.9-0.9v-0.1c0-0.5,0.4-0.9,0.9-0.9h2.8
				C14.1,31,14.5,31.4,14.5,31.9z"/>
			<path fill="#FFFFFF" d="M14.5,27.3L14.5,27.3c0,0.6-0.4,1-0.9,1h-2.8c-0.5,0-0.9-0.4-0.9-0.9v-0.1c0-0.5,0.4-0.9,0.9-0.9h2.8
				C14.1,26.4,14.5,26.8,14.5,27.3z"/>
			<path fill="#FFFFFF" d="M14.5,22.7L14.5,22.7c0,0.6-0.4,1-0.9,1h-2.8c-0.5,0-0.9-0.4-0.9-0.9v-0.1c0-0.5,0.4-0.9,0.9-0.9h2.8
				C14.1,21.8,14.5,22.2,14.5,22.7z"/>
			<path fill="#FFFFFF" d="M14.5,18L14.5,18c0,0.6-0.4,1-0.9,1h-2.8c-0.5,0-0.9-0.4-0.9-0.9V18c0-0.5,0.4-0.9,0.9-0.9h2.8
				C14.1,17.1,14.5,17.5,14.5,18z"/>
			<path fill="#FFFFFF" d="M40.1,31.9L40.1,31.9c0,0.6-0.4,1-0.9,1h-2.8c-0.5,0-0.9-0.4-0.9-0.9v-0.1c0-0.5,0.4-0.9,0.9-0.9h2.8
				C39.7,31,40.1,31.4,40.1,31.9z"/>
			<path fill="#FFFFFF" d="M40.1,27.3L40.1,27.3c0,0.6-0.4,1-0.9,1h-2.8c-0.5,0-0.9-0.4-0.9-0.9v-0.1c0-0.5,0.4-0.9,0.9-0.9h2.8
				C39.7,26.4,40.1,26.8,40.1,27.3z"/>
			<path fill="#FFFFFF" d="M40.1,22.7L40.1,22.7c0,0.6-0.4,1-0.9,1h-2.8c-0.5,0-0.9-0.4-0.9-0.9v-0.1c0-0.5,0.4-0.9,0.9-0.9h2.8
				C39.7,21.8,40.1,22.2,40.1,22.7z"/>
			<path fill="#FFFFFF" d="M40.1,18L40.1,18c0,0.6-0.4,1-0.9,1h-2.8c-0.5,0-0.9-0.4-0.9-0.9V18c0-0.5,0.4-0.9,0.9-0.9h2.8
				C39.7,17.1,40.1,17.5,40.1,18z"/>
		</g>
		<path fill="#FFFFFF" d="M33.5,13.7H16.3c-1.6,0-2.9,1.3-2.9,2.9v17.2c0,1.6,1.3,2.9,2.9,2.9h17.2c1.6,0,2.9-1.3,2.9-2.9V16.6
			C36.4,15,35.1,13.7,33.5,13.7z M25,35.2c-4.7,0-8.5-4.5-8.5-10.1c0-5.6,3.8-10.1,8.5-10.1s8.5,4.5,8.5,10.1
			C33.5,30.6,29.7,35.2,25,35.2z"/>
		<g>
			<path fill="#FFFFFF" d="M21.4,19.1L21.4,19.1c-0.2,0-0.3-0.1-0.3-0.3v-3.2c0-0.1,0.1-0.3,0.3-0.3h0c0.1,0,0.3,0.1,0.3,0.3v3.2
				C21.6,19,21.5,19.1,21.4,19.1z"/>
			<path fill="#FFFFFF" d="M21.4,19.1h2.2c0.1,0,0.3-0.1,0.3-0.3v0c0-0.1-0.1-0.3-0.3-0.3h-2.2c-0.1,0-0.3,0.1-0.3,0.3v0
				C21.1,19,21.2,19.1,21.4,19.1z"/>
			<path fill="#FFFFFF" d="M24.9,35.7L24.9,35.7c0.2,0,0.3-0.1,0.3-0.3V15.1c0-0.2-0.1-0.3-0.3-0.3h0c-0.2,0-0.3,0.1-0.3,0.3v20.3
				C24.7,35.6,24.8,35.7,24.9,35.7z"/>
			<path fill="#FFFFFF" d="M24.8,17.6h-2.1c-0.2,0-0.3-0.1-0.3-0.3v0c0-0.2,0.1-0.3,0.3-0.3h2.1c0.2,0,0.3,0.1,0.3,0.3v0
				C25.1,17.5,24.9,17.6,24.8,17.6z"/>
			<path fill="#FFFFFF" d="M24.7,20.7h-3c-0.2,0-0.3-0.1-0.3-0.3v0c0-0.2,0.1-0.3,0.3-0.3h3c0.2,0,0.3,0.1,0.3,0.3v0
				C24.9,20.5,24.8,20.7,24.7,20.7z"/>
			<path fill="#FFFFFF" d="M21.6,20.1L21.6,20.1c0.2,0,0.3,0.1,0.3,0.3v3.2c0,0.2-0.1,0.3-0.3,0.3h0c-0.2,0-0.3-0.1-0.3-0.3v-3.2
				C21.4,20.2,21.5,20.1,21.6,20.1z"/>
			<path fill="#FFFFFF" d="M21.6,23.8h1.9c0.1,0,0.3-0.1,0.3-0.3v0c0-0.1-0.1-0.3-0.3-0.3h-1.9c-0.1,0-0.3,0.1-0.3,0.3v0
				C21.4,23.7,21.5,23.8,21.6,23.8z"/>
			<path fill="#FFFFFF" d="M24.9,22.3H23c-0.2,0-0.3-0.1-0.3-0.3v0c0-0.2,0.1-0.3,0.3-0.3h1.9c0.2,0,0.3,0.1,0.3,0.3v0
				C25.2,22.2,25,22.3,24.9,22.3z"/>
			<path fill="#FFFFFF" d="M20,20.7h-2.9c-0.2,0-0.3-0.1-0.3-0.3v0c0-0.2,0.1-0.3,0.3-0.3H20c0.2,0,0.3,0.1,0.3,0.3v0
				C20.3,20.6,20.2,20.7,20,20.7z"/>
			<path fill="#FFFFFF" d="M20,20.1L20,20.1c0.2,0,0.4,0.2,0.4,0.4v2.9c0,0.2-0.2,0.4-0.4,0.4h0c-0.2,0-0.4-0.2-0.4-0.4v-2.9
				C19.7,20.2,19.8,20.1,20,20.1z"/>
			<path fill="#FFFFFF" d="M20.1,23.7h-4.7c-0.2,0-0.3-0.1-0.3-0.3v0c0-0.2,0.1-0.3,0.3-0.3h4.7c0.2,0,0.3,0.1,0.3,0.3v0
				C20.4,23.6,20.3,23.7,20.1,23.7z"/>
			<path fill="#FFFFFF" d="M18.5,22.3h-2.1c-0.2,0-0.3-0.1-0.3-0.3v0c0-0.2,0.1-0.3,0.3-0.3h2.1c0.2,0,0.3,0.1,0.3,0.3v0
				C18.8,22.2,18.6,22.3,18.5,22.3z"/>
			<path fill="#FFFFFF" d="M24.6,25.4h-8.4c-0.2,0-0.3-0.2-0.3-0.3v0c0-0.2,0.2-0.3,0.3-0.3h8.4c0.2,0,0.3,0.2,0.3,0.3v0
				C24.9,25.3,24.8,25.4,24.6,25.4z"/>
			<path fill="#FFFFFF" d="M20.5,27h-4.1c-0.2,0-0.3-0.1-0.3-0.3v0c0-0.2,0.1-0.3,0.3-0.3h4.1c0.2,0,0.3,0.1,0.3,0.3v0
				C20.8,26.9,20.7,27,20.5,27z"/>
			<path fill="#FFFFFF" d="M20.5,26.4L20.5,26.4c0.2,0,0.3,0.1,0.3,0.3v1.4c0,0.2-0.1,0.3-0.3,0.3h0c-0.2,0-0.3-0.1-0.3-0.3v-1.4
				C20.1,26.5,20.3,26.4,20.5,26.4z"/>
			<path fill="#FFFFFF" d="M20.5,28.4h-2.1c-0.1,0-0.3-0.1-0.3-0.3v0c0-0.1,0.1-0.3,0.3-0.3h2.1c0.1,0,0.3,0.1,0.3,0.3v0
				C20.8,28.3,20.7,28.4,20.5,28.4z"/>
			<path fill="#FFFFFF" d="M21.9,30.1L21.9,30.1c0.2,0,0.3-0.1,0.3-0.3v-3.1c0-0.2-0.1-0.3-0.3-0.3h0c-0.2,0-0.3,0.1-0.3,0.3v3.1
				C21.6,29.9,21.8,30.1,21.9,30.1z"/>
			<path fill="#FFFFFF" d="M21.9,27h2.6c0.2,0,0.3-0.1,0.3-0.3v0c0-0.2-0.1-0.3-0.3-0.3h-2.6c-0.2,0-0.3,0.1-0.3,0.3v0
				C21.6,26.9,21.8,27,21.9,27z"/>
			<path fill="#FFFFFF" d="M22,30.2h-5c-0.2,0-0.3-0.1-0.3-0.3v0c0-0.2,0.1-0.3,0.3-0.3h5c0.2,0,0.3,0.1,0.3,0.3v0
				C22.2,30.1,22.1,30.2,22,30.2z"/>
			<path fill="#FFFFFF" d="M23.5,31.6L23.5,31.6c0.2,0,0.3-0.1,0.3-0.3v-3.2c0-0.2-0.1-0.3-0.3-0.3h0c-0.2,0-0.3,0.1-0.3,0.3v3.2
				C23.2,31.5,23.4,31.6,23.5,31.6z"/>
			<path fill="#FFFFFF" d="M23.5,31.6h-2.1c-0.2,0-0.3-0.1-0.3-0.3v0c0-0.2,0.1-0.3,0.3-0.3h2.1c0.2,0,0.3,0.1,0.3,0.3v0
				C23.8,31.5,23.7,31.6,23.5,31.6z"/>
			<path fill="#FFFFFF" d="M21.4,31.1L21.4,31.1c0.2,0,0.3,0.1,0.3,0.3v3.1c0,0.2-0.1,0.3-0.3,0.3h0c-0.2,0-0.3-0.1-0.3-0.3v-3.1
				C21.1,31.2,21.2,31.1,21.4,31.1z"/>
			<path fill="#FFFFFF" d="M19.7,34.7L19.7,34.7c0.2,0,0.3-0.1,0.3-0.3v-3.2c0-0.2-0.1-0.3-0.3-0.3h0c-0.2,0-0.3,0.1-0.3,0.3v3.2
				C19.4,34.6,19.6,34.7,19.7,34.7z"/>
			<path fill="#FFFFFF" d="M22.9,33.2h1.6c0.2,0,0.3-0.1,0.3-0.3v0c0-0.2-0.1-0.3-0.3-0.3h-1.6c-0.2,0-0.3,0.1-0.3,0.3v0
				C22.6,33,22.7,33.2,22.9,33.2z"/>
			<path fill="#FFFFFF" d="M19.9,19.2h-2.3c-0.2,0-0.3-0.1-0.3-0.3v0c0-0.2,0.1-0.3,0.3-0.3h2.3c0.2,0,0.3,0.1,0.3,0.3v0
				C20.2,19.1,20.1,19.2,19.9,19.2z"/>
			<path fill="#FFFFFF" d="M28.5,19.1L28.5,19.1c0.2,0,0.3-0.1,0.3-0.3v-3.2c0-0.1-0.1-0.3-0.3-0.3h0c-0.1,0-0.3,0.1-0.3,0.3v3.2
				C28.2,19,28.3,19.1,28.5,19.1z"/>
			<path fill="#FFFFFF" d="M28.5,19.1h-2.2c-0.1,0-0.3-0.1-0.3-0.3v0c0-0.1,0.1-0.3,0.3-0.3h2.2c0.1,0,0.3,0.1,0.3,0.3v0
				C28.7,19,28.6,19.1,28.5,19.1z"/>
			<path fill="#FFFFFF" d="M25,17.6h2.1c0.2,0,0.3-0.1,0.3-0.3v0c0-0.2-0.1-0.3-0.3-0.3H25c-0.2,0-0.3,0.1-0.3,0.3v0
				C24.8,17.5,24.9,17.6,25,17.6z"/>
			<path fill="#FFFFFF" d="M25.2,20.7h3c0.2,0,0.3-0.1,0.3-0.3v0c0-0.2-0.1-0.3-0.3-0.3h-3c-0.2,0-0.3,0.1-0.3,0.3v0
				C24.9,20.6,25,20.7,25.2,20.7z"/>
			<path fill="#FFFFFF" d="M28.2,20.1L28.2,20.1c-0.2,0-0.3,0.1-0.3,0.3v3.2c0,0.2,0.1,0.3,0.3,0.3h0c0.2,0,0.3-0.1,0.3-0.3v-3.2
				C28.5,20.2,28.3,20.1,28.2,20.1z"/>
			<path fill="#FFFFFF" d="M28.2,23.8h-1.9c-0.1,0-0.3-0.1-0.3-0.3v0c0-0.1,0.1-0.3,0.3-0.3h1.9c0.1,0,0.3,0.1,0.3,0.3v0
				C28.5,23.7,28.4,23.8,28.2,23.8z"/>
			<path fill="#FFFFFF" d="M25,22.3h1.9c0.2,0,0.3-0.1,0.3-0.3v0c0-0.2-0.1-0.3-0.3-0.3H25c-0.2,0-0.3,0.1-0.3,0.3v0
				C24.7,22.2,24.8,22.3,25,22.3z"/>
			<path fill="#FFFFFF" d="M29.8,20.8h2.9c0.2,0,0.3-0.1,0.3-0.3v0c0-0.2-0.1-0.3-0.3-0.3h-2.9c-0.2,0-0.3,0.1-0.3,0.3v0
				C29.5,20.6,29.7,20.8,29.8,20.8z"/>
			<path fill="#FFFFFF" d="M29.8,20.1L29.8,20.1c-0.2,0-0.4,0.2-0.4,0.4v2.9c0,0.2,0.2,0.4,0.4,0.4h0c0.2,0,0.4-0.2,0.4-0.4v-2.9
				C30.2,20.3,30,20.1,29.8,20.1z"/>
			<path fill="#FFFFFF" d="M29.7,23.7h4.7c0.2,0,0.3-0.1,0.3-0.3v0c0-0.2-0.1-0.3-0.3-0.3h-4.7c-0.2,0-0.3,0.1-0.3,0.3v0
				C29.4,23.6,29.6,23.7,29.7,23.7z"/>
			<path fill="#FFFFFF" d="M31.4,22.3h2.1c0.2,0,0.3-0.1,0.3-0.3v0c0-0.2-0.1-0.3-0.3-0.3h-2.1c-0.2,0-0.3,0.1-0.3,0.3v0
				C31.1,22.2,31.2,22.3,31.4,22.3z"/>
			<path fill="#FFFFFF" d="M25.2,25.5h8.4c0.2,0,0.3-0.2,0.3-0.3v0c0-0.2-0.2-0.3-0.3-0.3h-8.4c-0.2,0-0.3,0.2-0.3,0.3v0
				C24.9,25.3,25,25.5,25.2,25.5z"/>
			<path fill="#FFFFFF" d="M29.3,27h4.1c0.2,0,0.3-0.1,0.3-0.3v0c0-0.2-0.1-0.3-0.3-0.3h-4.1c-0.2,0-0.3,0.1-0.3,0.3v0
				C29,26.9,29.2,27,29.3,27z"/>
			<path fill="#FFFFFF" d="M29.4,26.4L29.4,26.4c-0.2,0-0.3,0.1-0.3,0.3v1.4c0,0.2,0.1,0.3,0.3,0.3h0c0.2,0,0.3-0.1,0.3-0.3v-1.4
				C29.7,26.6,29.6,26.4,29.4,26.4z"/>
			<path fill="#FFFFFF" d="M29.3,28.4h2.1c0.1,0,0.3-0.1,0.3-0.3v0c0-0.1-0.1-0.3-0.3-0.3h-2.1c-0.1,0-0.3,0.1-0.3,0.3v0
				C29,28.3,29.2,28.4,29.3,28.4z"/>
			<path fill="#FFFFFF" d="M27.9,30.1L27.9,30.1c-0.2,0-0.3-0.1-0.3-0.3v-3.1c0-0.2,0.1-0.3,0.3-0.3h0c0.2,0,0.3,0.1,0.3,0.3v3.1
				C28.2,30,28.1,30.1,27.9,30.1z"/>
			<path fill="#FFFFFF" d="M27.9,27h-2.6c-0.2,0-0.3-0.1-0.3-0.3v0c0-0.2,0.1-0.3,0.3-0.3h2.6c0.2,0,0.3,0.1,0.3,0.3v0
				C28.2,26.9,28.1,27,27.9,27z"/>
			<path fill="#FFFFFF" d="M27.9,30.2h5c0.2,0,0.3-0.1,0.3-0.3v0c0-0.2-0.1-0.3-0.3-0.3h-5c-0.2,0-0.3,0.1-0.3,0.3v0
				C27.6,30.1,27.7,30.2,27.9,30.2z"/>
			<path fill="#FFFFFF" d="M26.3,31.7L26.3,31.7c-0.2,0-0.3-0.1-0.3-0.3v-3.2c0-0.2,0.1-0.3,0.3-0.3h0c0.2,0,0.3,0.1,0.3,0.3v3.2
				C26.6,31.5,26.5,31.7,26.3,31.7z"/>
			<path fill="#FFFFFF" d="M26.3,31.7h2.1c0.2,0,0.3-0.1,0.3-0.3v0c0-0.2-0.1-0.3-0.3-0.3h-2.1c-0.2,0-0.3,0.1-0.3,0.3v0
				C26,31.5,26.2,31.7,26.3,31.7z"/>
			<path fill="#FFFFFF" d="M28.5,31.1L28.5,31.1c-0.2,0-0.3,0.1-0.3,0.3v3.1c0,0.2,0.1,0.3,0.3,0.3h0c0.2,0,0.3-0.1,0.3-0.3v-3.1
				C28.7,31.3,28.6,31.1,28.5,31.1z"/>
			<path fill="#FFFFFF" d="M30.1,34.8L30.1,34.8c-0.2,0-0.3-0.1-0.3-0.3v-3.2c0-0.2,0.1-0.3,0.3-0.3h0c0.2,0,0.3,0.1,0.3,0.3v3.2
				C30.4,34.6,30.3,34.8,30.1,34.8z"/>
			<path fill="#FFFFFF" d="M26.9,33.2h-1.6c-0.2,0-0.3-0.1-0.3-0.3v0c0-0.2,0.1-0.3,0.3-0.3h1.6c0.2,0,0.3,0.1,0.3,0.3v0
				C27.3,33.1,27.1,33.2,26.9,33.2z"/>
			<path fill="#FFFFFF" d="M29.9,19.2h2.3c0.2,0,0.3-0.1,0.3-0.3v0c0-0.2-0.1-0.3-0.3-0.3h-2.3c-0.2,0-0.3,0.1-0.3,0.3v0
				C29.7,19.1,29.8,19.2,29.9,19.2z"/>
		</g>
	</g>
</g>
</svg>
